<svg width="100" height="40" viewBox="0 0 100 40" fill="none" xmlns="http://www.w3.org/2000/svg">
<g clip-path="url(#clip0_1968_1232)">
<path d="M20.0729 40C31.1588 40 40.1457 31.0457 40.1457 20C40.1457 8.95431 31.1588 0 20.0729 0C8.98693 0 0 8.95431 0 20C0 31.0457 8.98693 40 20.0729 40Z" fill="#5B5C64"/>
<path d="M41.3901 16.4463C42.0537 16.3636 42.7173 16.281 43.3808 16.281C44.2103 16.1983 44.9568 16.3636 45.6204 16.8595C46.0351 17.1901 46.2839 17.7686 46.201 18.2644C46.201 19.0909 45.7033 19.8347 44.8739 20.0826C45.4545 20.3306 45.7863 20.8264 45.8692 21.4876C46.0351 22.1487 46.201 22.8099 46.4498 23.4711H45.1227C44.9568 22.8925 44.7909 22.3967 44.625 21.8182C44.4591 20.9091 44.1273 20.5785 43.3808 20.5785H42.7173V23.4711H41.4731V16.4463H41.3901ZM42.6343 19.5868H43.3808C44.2932 19.5868 44.7909 19.0909 44.7909 18.4297C44.7909 17.6859 44.2103 17.2727 43.3808 17.2727C43.132 17.2727 42.8832 17.2727 42.6343 17.3554V19.5868Z" fill="#5B5C64"/>
<path d="M48.2743 21.3224C48.2743 22.0662 48.9378 22.7273 49.7673 22.6447C49.8502 22.6447 49.8502 22.6447 49.9332 22.6447C50.4309 22.6447 50.9285 22.562 51.3433 22.3968L51.5092 23.3058C50.9285 23.5538 50.3479 23.6364 49.6844 23.6364C48.3572 23.7191 47.113 22.7273 47.0301 21.405C47.0301 21.2397 47.0301 21.1571 47.0301 20.9918C46.9471 19.5868 47.9425 18.3472 49.3526 18.2645C49.4355 18.2645 49.5185 18.2645 49.5185 18.2645C51.1774 18.2645 51.758 19.6695 51.758 20.7439C51.758 20.9092 51.758 21.0744 51.6751 21.3224H48.2743ZM50.5138 20.4133C50.5968 19.8348 50.182 19.2563 49.6014 19.1736H49.5185C48.8549 19.1736 48.3572 19.7521 48.3572 20.4133H50.5138Z" fill="#5B5C64"/>
<path d="M56.6517 23.3058C56.154 23.4711 55.6564 23.5537 55.1587 23.5537C53.8316 23.6364 52.5874 22.6446 52.5044 21.2397C52.5044 21.157 52.5044 20.9917 52.5044 20.9091C52.4215 19.4215 53.5827 18.1818 55.0757 18.1818C55.1587 18.1818 55.2416 18.1818 55.4075 18.1818C55.8223 18.1818 56.237 18.2645 56.6517 18.4298L56.4029 19.4215C56.0711 19.2562 55.7393 19.1736 55.4075 19.2562C54.5781 19.2562 53.8316 19.9174 53.8316 20.7438C53.8316 20.8265 53.8316 20.8265 53.8316 20.9091C53.7486 21.7355 54.3292 22.4793 55.1587 22.562C55.2416 22.562 55.3246 22.562 55.4075 22.562C55.7393 22.562 56.154 22.4793 56.4029 22.3141L56.6517 23.3058Z" fill="#5B5C64"/>
<path d="M57.5645 15.9503H58.8916V23.471H57.5645V15.9503Z" fill="#5B5C64"/>
<path d="M63.2046 23.4712L63.1217 22.8927C62.7899 23.3059 62.2093 23.5538 61.6286 23.5538C60.7992 23.6365 60.0527 22.9753 59.9697 22.2315C59.9697 22.1489 59.9697 22.1489 59.9697 22.0662C59.9697 20.7439 61.131 20.0827 63.0387 20.0827V20.0001C63.0387 19.6695 62.8728 19.091 61.9604 19.091C61.4627 19.091 60.9651 19.2563 60.5503 19.5042L60.3015 18.6778C60.8821 18.3472 61.5457 18.1819 62.1263 18.1819C63.2046 18.0993 64.117 18.9257 64.2 19.9175C64.2 20.0827 64.2 20.1654 64.2 20.3307V22.2315C64.2 22.6447 64.2 23.0579 64.2829 23.4712H63.2046ZM63.0387 20.9918C62.1263 20.9918 61.2139 21.1571 61.2139 21.9836C61.2139 22.3968 61.4627 22.7274 61.7945 22.7274C61.8775 22.7274 61.8775 22.7274 61.9604 22.7274C62.4581 22.7274 62.7899 22.4794 62.9558 21.9836C62.9558 21.9009 63.0387 21.8183 63.0387 21.7356V20.9918Z" fill="#5B5C64"/>
<path d="M65.6928 19.9173C65.6928 19.3388 65.6928 18.8429 65.6099 18.3471H66.7711L66.854 19.0909C67.1858 18.5123 67.7665 18.1818 68.43 18.1818C69.0936 18.1818 69.6742 18.5123 69.8401 19.0909C70.006 18.8429 70.2548 18.595 70.5037 18.4297C70.8354 18.1818 71.1672 18.0991 71.499 18.0991C72.3285 18.0991 73.2409 18.6776 73.2409 20.3305V23.3884H71.9967V20.6611C71.9967 19.8347 71.6649 19.2561 71.0843 19.2561C70.6695 19.2561 70.3378 19.5867 70.1719 19.9173C70.1719 20.0826 70.0889 20.1652 70.0889 20.3305V23.3884H68.8447V20.4132C68.8447 19.6694 68.513 19.1735 67.9323 19.1735C67.5176 19.1735 67.1029 19.5041 67.0199 19.9173C66.937 20.0826 66.937 20.1652 66.937 20.3305V23.3884H65.6928V19.9173Z" fill="#5B5C64"/>
<path d="M77.6372 23.4711L77.5543 22.8926C77.2225 23.3058 76.6419 23.5537 76.0613 23.5537C75.2318 23.6364 74.4853 22.9752 74.4023 22.2314C74.4023 22.1488 74.4023 22.1488 74.4023 22.0661C74.4023 20.7438 75.5636 20.0826 77.4713 20.0826V20C77.4713 19.6694 77.3055 19.0909 76.393 19.0909C75.8954 19.0909 75.3977 19.2562 74.983 19.5041L74.7341 18.6777C75.3147 18.3471 75.9783 18.1818 76.5589 18.1818C77.6372 18.0992 78.5496 18.843 78.7155 19.8347C78.7155 20 78.7155 20.1653 78.7155 20.3306V22.2314C78.7155 22.6446 78.7155 23.0578 78.7985 23.4711H77.6372ZM77.4713 20.9917C76.5589 20.9917 75.6465 21.157 75.6465 21.9835C75.6465 22.3967 75.8954 22.7273 76.2272 22.7273C76.3101 22.7273 76.3101 22.7273 76.393 22.7273C76.8907 22.7273 77.2225 22.4793 77.3884 21.9835C77.3884 21.9008 77.4713 21.8182 77.4713 21.7355V20.9917Z" fill="#5B5C64"/>
<path d="M83.8583 23.3058C83.4435 23.4711 83.0288 23.5538 82.6141 23.5538L82.3652 23.967C82.78 23.967 83.1117 24.2976 83.1117 24.7108C83.1117 25.372 82.5311 25.6199 81.8676 25.6199C81.6187 25.6199 81.2869 25.5372 81.0381 25.4546L81.204 24.9587C81.3699 25.0414 81.5358 25.124 81.7846 25.124C82.0335 25.124 82.1993 25.0414 82.1993 24.7934C82.1993 24.5455 81.9505 24.3802 81.3699 24.3802L81.7846 23.6364C80.4575 23.4711 79.5451 22.3141 79.628 21.0744C79.5451 19.5868 80.7063 18.3472 82.1993 18.3472C82.2823 18.3472 82.3652 18.3472 82.5311 18.3472C82.9459 18.3472 83.3606 18.4298 83.7753 18.5951L83.5265 19.5868C83.1947 19.4215 82.8629 19.3389 82.5311 19.4215C81.7017 19.4215 80.9552 20.0827 80.9552 20.9091C80.9552 20.9918 80.9552 20.9918 80.9552 21.0744C80.8722 21.9009 81.4528 22.6447 82.2823 22.7273C82.3652 22.7273 82.4482 22.7273 82.5311 22.7273C82.8629 22.7273 83.2776 22.6447 83.5265 22.562L83.8583 23.3058Z" fill="#5B5C64"/>
<path d="M89.6645 20.8265C89.7474 22.2314 88.7521 23.4711 87.342 23.5537C87.2591 23.5537 87.1761 23.5537 87.0102 23.5537C85.6002 23.6364 84.4389 22.562 84.4389 21.157C84.4389 21.0744 84.4389 20.9918 84.4389 20.9091C84.356 19.5041 85.4343 18.2645 86.7614 18.1818C86.8444 18.1818 87.0102 18.1818 87.0932 18.1818C88.4203 18.0992 89.5816 19.1736 89.6645 20.5785C89.6645 20.6612 89.6645 20.7438 89.6645 20.8265ZM85.6002 17.5207C85.6002 16.6942 85.9319 16.281 86.4296 16.281C86.6785 16.281 86.9273 16.3637 87.0932 16.5289C87.2591 16.6116 87.342 16.6942 87.5079 16.6942C87.6738 16.6942 87.7568 16.6116 87.7568 16.1984H88.3374C88.3374 17.0248 88.0885 17.438 87.5079 17.438C87.2591 17.438 87.0102 17.3554 86.8444 17.1901C86.6785 17.1075 86.5955 17.0248 86.4296 17.0248C86.2637 17.0248 86.1808 17.1901 86.1808 17.5207H85.6002ZM85.7661 20.9091C85.7661 21.9008 86.2637 22.6446 87.0102 22.6446C87.7568 22.6446 88.2544 21.9008 88.2544 20.9091C88.2544 20.0827 87.9226 19.1736 87.0102 19.1736C86.0978 19.1736 85.7661 20.0827 85.7661 20.9091Z" fill="#5B5C64"/>
<path d="M91.6549 21.3224C91.6549 22.0662 92.3185 22.7273 93.1479 22.6447C93.2309 22.6447 93.2309 22.6447 93.3138 22.6447C93.8115 22.6447 94.3092 22.562 94.7239 22.3968L94.8898 23.3058C94.3092 23.5538 93.7285 23.6364 93.065 23.6364C91.7378 23.7191 90.4937 22.81 90.4107 21.405C90.4107 21.2397 90.4107 21.1571 90.4107 20.9918C90.3278 19.5868 91.3231 18.3472 92.7332 18.2645C92.8161 18.2645 92.8991 18.2645 92.8991 18.2645C94.558 18.2645 95.1386 19.6695 95.1386 20.7439C95.1386 20.9092 95.1386 21.0744 95.1386 21.3224H91.6549ZM93.8944 20.4133C93.9774 19.8348 93.5627 19.2563 92.982 19.1736H92.8991C92.2355 19.1736 91.7378 19.7521 91.6549 20.4133H93.8944Z" fill="#5B5C64"/>
<path d="M96.1342 22.3141C96.5489 22.562 96.9636 22.6447 97.4613 22.7273C98.0419 22.7273 98.2907 22.4794 98.2907 22.1488C98.2907 21.8182 98.0419 21.653 97.4613 21.405C96.4659 21.0744 96.0512 20.4959 96.0512 19.9174C96.0512 19.0083 96.7977 18.2645 97.959 18.2645C98.4566 18.2645 98.8714 18.3472 99.369 18.5951L99.1202 19.5042C98.7884 19.3389 98.3737 19.1736 98.0419 19.1736C97.5442 19.1736 97.2954 19.4215 97.2954 19.7521C97.2954 20.0827 97.5442 20.248 98.2078 20.4959C99.1202 20.8265 99.6179 21.3224 99.6179 22.0662C99.6179 22.9753 98.8714 23.6364 97.5442 23.6364C96.9636 23.6364 96.4659 23.5538 95.9683 23.3058L96.1342 22.3141Z" fill="#5B5C64"/>
<path d="M2.32239 16.3635H3.64952V22.3966H6.55262V23.471H2.32239V16.3635Z" fill="white"/>
<path d="M8.87535 16.9422C8.87535 17.3554 8.54356 17.6033 8.21178 17.6033C8.21178 17.6033 8.21178 17.6033 8.12884 17.6033C7.71411 17.6033 7.38232 17.3554 7.38232 17.0248V16.9422C7.38232 16.5289 7.71411 16.1984 8.12884 16.1984C8.54356 16.1984 8.87535 16.5289 8.87535 16.9422ZM7.54822 23.4711V18.3471H8.87535V23.4711H7.54822Z" fill="white"/>
<path d="M11.0317 18.3472L11.8611 20.9918C12.027 21.4877 12.11 21.9009 12.1929 22.3141C12.2758 21.9009 12.4417 21.4877 12.5247 20.9918L13.3541 18.3472H14.7642L12.7735 23.4711H11.5293L9.62158 18.3472H11.0317Z" fill="white"/>
<path d="M15.5938 20.0001C15.5938 19.3389 15.5938 18.843 15.5938 18.3472H16.755L16.8379 19.3389H16.9209C17.0868 18.6777 17.6674 18.2645 18.331 18.2645C18.4139 18.2645 18.4968 18.2645 18.6627 18.2645V19.5042C18.4968 19.5042 18.4139 19.5042 18.248 19.5042C17.6674 19.5042 17.1697 19.9174 17.0868 20.4959C17.0868 20.6612 17.0868 20.7439 17.0868 20.9092V23.5538H15.7596V20.0001H15.5938Z" fill="white"/>
<path d="M24.2202 20.8265C24.3031 22.2314 23.3078 23.4711 21.8977 23.5537C21.8148 23.5537 21.7318 23.5537 21.5659 23.5537C20.1558 23.6364 18.9946 22.562 18.9946 21.157C18.9946 21.0744 18.9946 20.9918 18.9946 20.9091C18.9117 19.5041 19.9899 18.2645 21.3171 18.1818C21.4 18.1818 21.5659 18.1818 21.6489 18.1818C22.976 18.0992 24.1372 19.1736 24.2202 20.5785C24.2202 20.6612 24.2202 20.7438 24.2202 20.8265ZM20.3217 20.9091C20.3217 21.9008 20.8194 22.6446 21.6489 22.6446C22.4783 22.6446 22.893 21.9008 22.893 20.9091C22.893 20.0827 22.5613 19.1736 21.6489 19.1736C20.7365 19.1736 20.3217 20.0827 20.3217 20.9091Z" fill="white"/>
<path d="M32.2659 15.9505V21.9836C32.2659 22.4794 32.2659 23.0579 32.3488 23.4712H31.1876L31.1046 22.6447C30.7728 23.2232 30.1093 23.6365 29.4457 23.5538C28.2015 23.5538 27.2062 22.4794 27.2062 20.9092C27.2062 19.1736 28.2845 18.1819 29.5287 18.1819C30.1093 18.0993 30.607 18.4298 30.9387 18.8431V15.8679H32.2659V15.9505ZM30.9387 20.496C30.9387 20.4133 30.9387 20.248 30.9387 20.1654C30.8558 19.5869 30.3581 19.2563 29.7775 19.2563C28.948 19.2563 28.4504 20.0001 28.4504 20.9918C28.4504 21.9836 28.948 22.6447 29.7775 22.6447C30.3581 22.6447 30.7728 22.2315 30.9387 21.7356C30.9387 21.5703 31.0217 21.4877 31.0217 21.3224L30.9387 20.496Z" fill="white"/>
<path d="M34.5884 21.3224C34.5884 21.405 34.5884 21.405 34.5884 21.4877C34.6714 22.2315 35.4179 22.7273 36.1644 22.6447C36.6621 22.6447 37.0768 22.562 37.5745 22.3968L37.7404 23.3058C37.1597 23.5538 36.4962 23.6364 35.9156 23.6364C35.7497 23.6364 35.6667 23.6364 35.5008 23.6364C34.1737 23.4711 33.1784 22.3141 33.2613 20.9918C33.2613 20.9918 33.2613 20.9092 33.2613 20.8265C33.2613 19.4216 34.4225 18.2645 35.8326 18.2645C37.4915 18.2645 38.0722 19.5868 38.0722 20.7439C38.0722 20.9918 37.9892 21.1571 37.9892 21.3224H34.5884ZM36.745 20.4133V20.3306C36.745 19.6695 36.2473 19.1736 35.6667 19.1736C35.0032 19.1736 34.5055 19.7521 34.5055 20.4133H36.745Z" fill="white"/>
</g>
<defs>
<clipPath id="clip0_1968_1232">
<rect width="99.5349" height="40" fill="white"/>
</clipPath>
</defs>
</svg>
